<svg xmlns="http://www.w3.org/2000/svg" viewBox="0 0 120 120"><defs><style>.\30 4cb7f46-76eb-46d2-845d-936803014033{fill:#fff;}.\34 9592188-5835-4f4d-b251-487e1a897765{fill:none;}</style></defs><title>Eye</title><g id="55427210-8463-43b1-a1fc-e5c42fa9fc1c" data-name="Capa 2"><g id="09c25465-4113-4205-93df-918a2b57f7d2" data-name="Logo"><g id="b7c19006-2fa1-42e2-be73-bb770b27fafa" data-name="Eye"><path class="04cb7f46-76eb-46d2-845d-936803014033" d="M70.48,60.52a14.49,14.49,0,0,1-4.19-.6,14.78,14.78,0,0,1-4.44-2.13L77,31.6l8-13.82a39.22,39.22,0,0,1,3.41,16.11,39.86,39.86,0,0,1-4.74,18.83l-.08.11A15,15,0,0,1,70.48,60.52Zm1.88-12.71c-1.65,0-2.91,2.39-2.91,5.57S70.71,59,72.36,59s2.91-2.4,2.91-5.58S74,47.81,72.36,47.81Z"/><path class="04cb7f46-76eb-46d2-845d-936803014033" d="M84.89,18.89a39.3,39.3,0,0,1-1.68,33.53l0,0-.07.12A14.44,14.44,0,0,1,70.47,60a14,14,0,0,1-4-.58,14.24,14.24,0,0,1-3.9-1.8L73.38,38.82l4-7,7.49-13M72.36,59.46c2,0,3.4-2.56,3.4-6.08s-1.43-6.07-3.4-6.07S69,49.86,69,53.38s1.44,6.08,3.41,6.08M85,16.69,84.25,18,76.53,31.35l-4,7L61.19,57.93a15.33,15.33,0,0,0,5,2.47,15.11,15.11,0,0,0,4.33.62,15.42,15.42,0,0,0,13.5-8l0,0h0a40.24,40.24,0,0,0,1-36.33ZM72.36,58.46C71,58.46,70,56.19,70,53.38s1.07-5.07,2.41-5.07,2.4,2.27,2.4,5.07-1.07,5.08-2.4,5.08Z"/><rect class="49592188-5835-4f4d-b251-487e1a897765" width="120" height="120"/></g></g></g></svg>