<svg xmlns="http://www.w3.org/2000/svg" viewBox="0 0 120 120"><defs><style>.bd471545-eed1-49a5-b993-04dcc7c67e1b{fill:#a47bcc;}.\36 6e9973c-0253-4b48-a169-511eb9598303{fill:#7b5c99;}.\33 6072bca-d98c-4c37-b8e7-ad636f6fc4ff{fill:#906cb3;}.\34 d28cda9-c8e8-4c8f-bfce-3c5ef5fadb39{fill:none;}</style></defs><title>InnerCube</title><g id="fcbd591a-a0aa-41ed-b092-eac92804c803" data-name="Capa 2"><g id="fd1c5af5-5bac-4a60-8bb3-f69dcb4bcf93" data-name="Logo"><g id="98cdcaa5-6bd9-4354-9407-d676ab1208b5" data-name="InnerCube"><g id="937a61fa-0dc1-460e-8e03-1fcaf7429ce9" data-name="inner cube"><path class="bd471545-eed1-49a5-b993-04dcc7c67e1b" d="M110,60l0,0L85,103.26v0h0L75,86,60,60l1.19-2.08L72.51,38.3,75,34l.47-.82,1.06-1.85L84.25,18,85,16.69v0s0,0,0,0L110,60Z"/><polygon class="66e9973c-0253-4b48-a169-511eb9598303" points="85 103.28 35 103.28 34.99 103.25 10.01 59.99 10 59.98 60 59.98 74.99 85.94 84.99 103.27 85 103.28"/><polygon class="36072bca-d98c-4c37-b8e7-ad636f6fc4ff" points="85 16.66 84.99 16.68 84.25 17.96 76.53 31.32 75.47 33.17 75 33.99 72.51 38.3 61.19 57.91 60 59.98 10 59.98 10.01 59.95 34.98 16.7 35 16.66 85 16.66"/></g><rect class="4d28cda9-c8e8-4c8f-bfce-3c5ef5fadb39" width="120" height="120"/></g></g></g></svg>